#!OML:ASF H:\Not Pregnant\Project 1\Capture day 1\Session 1\non-pregnant.ASF
:FULLY-SPECIFIED
:DEGREES
692
root 3.03169 1.25164 18.4429 -107.567 -6.86135 1.20981
lowerback 20.323 -0.83031 1.0688
upperback 3.47043 -0.924923 -0.279451
thorax -7.61704 -0.493613 -0.665303
lowerneck 14.0056 -11.2433 -28.6519
upperneck -4.55395 -22.5815 43.4076
head 5.95388 -12.788 20.1329
rclavicle -1.39149e-014 1.49089e-016
rhumerus -44.12 -17.8626 -50.794
rradius 19.436
rwrist 53.6333
rhand -9.86243 -4.69099
rfingers 7.12502
rthumb 16.1161 -34.0409
lclavicle -1.39149e-014 1.49089e-016
lhumerus -55.3688 -5.63776 78.3136
lradius 30.6613
lwrist -7.11694
lhand 7.98391 -11.7014
lfingers 7.12502
lthumb 33.2117 15.2539
rfemur 13.4079 -5.42876 21.0837
rtibia 26.0916
rfoot 12.7324 9.77707
rtoes -16.9087
lfemur 11.251 5.41095 -8.986
ltibia 29.7305
lfoot 23.1964 -7.05412
ltoes 6.098
693
root 3.0338 1.25026 18.4359 -107.411 -6.80257 1.20244
lowerback 20.1429 -0.817138 1.06172
upperback 3.42352 -0.91396 -0.325654
thorax -7.57218 -0.488352 -0.7157
lowerneck 14.0965 -11.1777 -28.6766
upperneck -4.58487 -22.4984 43.4354
head 5.9027 -12.7623 20.1952
rclavicle -6.36111e-015 -1.64619e-014
rhumerus -44.1879 -17.8699 -50.8658
rradius 19.4294
rwrist 53.5862
rhand -9.93439 -4.68826
rfingers 7.12502
rthumb 16.0468 -34.0438
lclavicle -6.36111e-015 -1.64619e-014
lhumerus -55.3812 -5.6753 78.2994
lradius 30.6216
lwrist -7.27348
lhand 7.86833 -11.8112
lfingers 7.12502
lthumb 33.1018 15.1675
rfemur 13.2139 -5.40045 21.0673
rtibia 26.0946
rfoot 12.5657 10.2329
rtoes -17.0854
lfemur 11.0691 5.42835 -9.11058
ltibia 29.7328
lfoot 23.2021 -7.08483
ltoes 6.58938
694
root 3.03567 1.24878 18.4274 -107.189 -6.75741 1.19221
lowerback 19.8993 -0.807818 1.06901
upperback 3.35928 -0.905416 -0.37087
thorax -7.51224 -0.484592 -0.772998
lowerneck 14.178 -11.1146 -28.7
upperneck -4.61064 -22.4186 43.4624
head 5.85571 -12.737 20.2548
rclavicle -9.14409e-015 7.10655e-015
rhumerus -44.2625 -17.9139 -50.916
rradius 19.4253
rwrist 53.5983
rhand -9.9857 -4.6759
rfingers 7.12502
rthumb 15.9974 -34.0354
lclavicle -9.14409e-015 7.10655e-015
lhumerus -55.3942 -5.71866 78.2861
lradius 30.5808
lwrist -7.43316
lhand 7.74907 -11.9443
lfingers 7.12502
lthumb 32.9884 15.0583
rfemur 12.9447 -5.39563 21.0644
rtibia 26.0959
rfoot 12.5389 10.6299
rtoes -17.0734
lfemur 10.8086 5.46579 -9.22097
ltibia 29.7411
lfoot 23.3465 -6.83198
ltoes 8.18607
695
root 3.03725 1.24735 18.4183 -106.935 -6.72578 1.17756
lowerback 19.6287 -0.80288 1.0908
upperback 3.29022 -0.899828 -0.415303
thorax -7.44298 -0.482604 -0.837034
lowerneck 14.2362 -11.06 -28.7195
upperneck -4.62826 -22.3479 43.4864
head 5.818 -12.713 20.306
rclavicle -5.96354e-015 -1.1778e-014
rhumerus -44.3376 -17.9984 -50.9461
rradius 19.4243
rwrist 53.6579
rhand -10.0137 -4.65055
rfingers 7.12502
rthumb 15.9704 -34.0122
lclavicle -5.96354e-015 -1.1778e-014
lhumerus -55.3987 -5.76849 78.2743
lradius 30.5371
lwrist -7.59084
lhand 7.62465 -12.0886
lfingers 7.12502
lthumb 32.8701 14.939
rfemur 12.6437 -5.41449 21.0721
rtibia 26.0905
rfoot 12.5869 11.025
rtoes -16.9809
lfemur 10.5065 5.52064 -9.3108
ltibia 29.7602
lfoot 23.5471 -6.60759
ltoes 9.80854
696
root 3.03807 1.24619 18.411 -106.716 -6.73053 1.16013
lowerback 19.3933 -0.805918 1.14662
upperback 3.23478 -0.896971 -0.452143
thorax -7.37795 -0.482697 -0.911194
lowerneck 14.2686 -11.0155 -28.7359
upperneck -4.63866 -22.2884 43.509
head 5.79129 -12.6913 20.3485
rclavicle -2.26615e-014 1.07716e-014
rhumerus -44.4071 -18.1123 -50.9642
rradius 19.4202
rwrist 53.7358
rhand -10.0209 -4.61343
rfingers 7.12502
rthumb 15.9635 -33.9756
lclavicle -2.26615e-014 1.07716e-014
lhumerus -55.3919 -5.82489 78.2625
lradius 30.4907
lwrist -7.74746
lhand 7.49537 -12.2403
lfingers 7.12502
lthumb 32.7471 14.8129
rfemur 12.3855 -5.43483 21.12
rtibia 26.0746
rfoot 12.7168 11.3783
rtoes -16.7176
lfemur 10.2306 5.58878 -9.33945
ltibia 29.794
lfoot 23.5792 -6.98514
ltoes 9.81287
697
root 3.03833 1.24516 18.4049 -106.514 -6.76411 1.13945
lowerback 19.1766 -0.814925 1.22861
upperback 3.18876 -0.896178 -0.481528
thorax -7.31283 -0.484323 -0.991486
lowerneck 14.2767 -10.9796 -28.7531
upperneck -4.64459 -22.2385 43.5328
head 5.77497 -12.6715 20.3858
rclavicle 3.97569e-015 1.68967e-014
rhumerus -44.4691 -18.2444 -50.9752
rradius 19.4162
rwrist 53.8187
rhand -10.004 -4.57309
rfingers 7.12502
rthumb 15.9798 -33.934
lclavicle 3.97569e-015 1.68967e-014
lhumerus -55.3754 -5.88703 78.2537
lradius 30.443
lwrist -7.90312
lhand 7.35393 -12.3913
lfingers 7.12502
lthumb 32.6125 14.6899
rfemur 12.151 -5.46811 21.1958
rtibia 26.049
rfoot 12.9149 11.7231
rtoes -16.3372
lfemur 9.96447 5.66676 -9.32147
ltibia 29.8404
lfoot 23.5033 -7.79598
ltoes 8.6343
698
root 3.03808 1.24432 18.4002 -106.347 -6.81727 1.11556
lowerback 18.9947 -0.827383 1.32968
upperback 3.15152 -0.895815 -0.507819
thorax -7.257 -0.486582 -1.07887
lowerneck 14.2819 -10.9454 -28.7699
upperneck -4.64501 -22.1929 43.5566
head 5.76253 -12.6535 20.4217
rclavicle -1.63003e-014 -2.47487e-014
rhumerus -44.5366 -18.3844 -50.9791
rradius 19.4097
rwrist 53.9005
rhand -9.96467 -4.52181
rfingers 7.12502
rthumb 16.0177 -33.8797
lclavicle -1.63003e-014 -2.47487e-014
lhumerus -55.3625 -5.96528 78.2492
lradius 30.3971
lwrist -8.05302
lhand 7.19737 -12.5322
lfingers 7.12502
lthumb 32.4635 14.5797
rfemur 11.9579 -5.51549 21.2879
rtibia 26.0166
rfoot 13.1148 12.1086
rtoes -15.9479
lfemur 9.73106 5.74733 -9.26782
ltibia 29.8953
lfoot 23.2798 -9.00487
ltoes 6.375
699
root 3.03758 1.24352 18.3958 -106.19 -6.88053 1.08952
lowerback 18.8237 -0.841314 1.43903
upperback 3.11684 -0.895728 -0.530981
thorax -7.20425 -0.489123 -1.16739
lowerneck 14.2845 -10.9111 -28.7911
upperneck -4.64113 -22.1501 43.5831
head 5.7542 -12.6367 20.4596
rclavicle 1.98785e-015 4.16205e-015
rhumerus -44.6046 -18.5216 -50.9791
rradius 19.4025
rwrist 53.9755
rhand -9.92272 -4.47846
rfingers 7.12502
rthumb 16.0581 -33.833
lclavicle 1.98785e-015 4.16205e-015
lhumerus -55.3551 -6.05209 78.2488
lradius 30.3562
lwrist -8.19623
lhand 7.02879 -12.66
lfingers 7.12502
lthumb 32.3031 14.4846
rfemur 11.775 -5.58346 21.3847
rtibia 25.9858
rfoot 13.2923 12.5633
rtoes -15.6063
lfemur 9.50959 5.82702 -9.19748
ltibia 29.9493
lfoot 22.9691 -10.3468
ltoes 3.79466
700
root 3.03709 1.24264 18.3911 -106.02 -6.94008 1.06308
lowerback 18.64 -0.852715 1.54787
upperback 3.08012 -0.893059 -0.556526
thorax -7.14671 -0.490338 -1.25886
lowerneck 14.2785 -10.8794 -28.8133
upperneck -4.62899 -22.114 43.6135
head 5.75384 -12.6225 20.4976
rclavicle 9.14409e-015 6.67171e-015
rhumerus -44.6762 -18.6592 -50.9773
rradius 19.3963
rwrist 54.0428
rhand -9.88378 -4.44062
rfingers 7.12502
rthumb 16.0956 -33.7922
lclavicle 9.14409e-015 6.67171e-015
lhumerus -55.3491 -6.15105 78.2501
lradius 30.3217
lwrist -8.32518
lhand 6.85822 -12.7688
lfingers 7.12502
lthumb 32.1407 14.4089
rfemur 11.5737 -5.67431 21.4711
rtibia 25.9617
rfoot 13.4335 13.1069
rtoes -15.3663
lfemur 9.28 5.90253 -9.13436
ltibia 29.9962
lfoot 22.7051 -11.5116
ltoes 1.75042
701
root 3.03681 1.24157 18.3856 -105.822 -6.98648 1.03589
lowerback 18.4287 -0.860982 1.64413
upperback 3.03647 -0.889691 -0.584743
thorax -7.08139 -0.49088 -1.34634
lowerneck 14.2719 -10.8091 -29.0633
upperneck -4.50941 -22.1167 43.363
head 5.87609 -12.6668 20.9608
rclavicle -1.15295e-014 -1.12065e-014
rhumerus -44.744 -18.788 -50.9754
rradius 19.3883
rwrist 54.103
rhand -9.85401 -4.40545
rfingers 7.12502
rthumb 16.1242 -33.7547
lclavicle -1.15295e-014 -1.12065e-014
lhumerus -55.3457 -6.25236 78.2511
lradius 30.2956
lwrist -8.4374
lhand 6.69576 -12.8536
lfingers 7.12502
lthumb 31.986 14.3552
rfemur 11.3358 -5.78385 21.5394
rtibia 25.945
rfoot 13.5382 13.7401
rtoes -15.2621
lfemur 9.02626 5.97022 -9.09572
ltibia 30.0332
lfoot 22.5765 -12.3703
ltoes 0.512775
702
root 3.03675 1.24022 18.3787 -105.576 -7.0221 1.00968
lowerback 18.1711 -0.866557 1.72697
upperback 2.98101 -0.886391 -0.612241
thorax -7.00335 -0.491062 -1.4256
lowerneck 14.2367 -10.7843 -29.0908
upperneck -4.46892 -22.0934 43.3818
head 5.89411 -12.6554 20.9906
rclavicle 5.96354e-015 2.41772e-014
rhumerus -44.8028 -18.897 -50.9781
rradius 19.3812
rwrist 54.1471
rhand -9.81925 -4.36646
rfingers 7.12502
rthumb 16.1577 -33.713
lclavicle 5.96354e-015 2.41772e-014
lhumerus -55.344 -6.34976 78.253
lradius 30.2771
lwrist -8.53017
lhand 6.5458 -12.916
lfingers 7.12502
lthumb 31.8433 14.3212
rfemur 11.0415 -5.89898 21.5988
rtibia 25.9332
rfoot 13.6802 14.3959
rtoes -15.1601
lfemur 8.72561 6.0289 -9.08313
ltibia 30.0626
lfoot 22.6527 -12.8327
ltoes 0.308935
703
root 3.03702 1.23863 18.3704 -105.286 -7.03799 0.985055
lowerback 17.8734 -0.866857 1.78993
upperback 2.9156 -0.881054 -0.64197
thorax -6.91371 -0.489721 -1.49659
lowerneck 14.1891 -10.7647 -29.1192
upperneck -4.42364 -22.0761 43.3969
head 5.91789 -12.6452 21.0145
rclavicle 3.57812e-015 -1.99344e-014
rhumerus -44.8573 -18.9944 -50.9818
rradius 19.3806
rwrist 54.1814
rhand -9.77868 -4.31997
rfingers 7.12502
rthumb 16.1968 -33.6633
lclavicle 3.57812e-015 -1.99344e-014
lhumerus -55.339 -6.44585 78.2563
lradius 30.2661
lwrist -8.59704
lhand 6.41729 -12.9544
lfingers 7.12502
lthumb 31.7209 14.3071
rfemur 10.6995 -6.01625 21.6395
rtibia 25.9212
rfoot 13.8163 15.0982
rtoes -15.0518
lfemur 8.38449 6.07584 -9.10785
ltibia 30.0889
lfoot 22.9305 -12.9333
ltoes 0.904111
704
root 3.03722 1.23692 18.3633 -105.013 -7.05382 0.965828
lowerback 17.593 -0.865529 1.85033
upperback 2.85466 -0.873928 -0.66951
thorax -6.82816 -0.487396 -1.56397
lowerneck 14.1381 -10.7482 -29.1462
upperneck -4.37875 -22.0616 43.4095
head 5.94259 -12.6357 21.0345
rclavicle 9.93923e-015 8.14396e-015
rhumerus -44.906 -19.0727 -50.9925
rradius 19.3852
rwrist 54.2016
rhand -9.72948 -4.26583
rfingers 7.12502
rthumb 16.2441 -33.6053
lclavicle 9.93923e-015 8.14396e-015
lhumerus -55.331 -6.54066 78.2586
lradius 30.2616
lwrist -8.63768
lhand 6.31587 -12.9745
lfingers 7.12502
lthumb 31.6243 14.3061
rfemur 10.3766 -6.10099 21.6901
rtibia 25.9061
rfoot 13.9614 15.7881
rtoes -14.8772
lfemur 8.06076 6.10853 -9.13487
ltibia 30.1156
lfoot 23.1769 -13.0201
ltoes 1.37597
705
root 3.03733 1.2351 18.3567 -104.737 -7.07682 0.952166
lowerback 17.3101 -0.861816 1.91633
upperback 2.79348 -0.862608 -0.693369
thorax -6.74104 -0.483037 -1.63146
lowerneck 14.0938 -10.7343 -29.1674
upperneck -4.3469 -22.0466 43.4218
head 5.961 -12.6263 21.0524
rclavicle 1.59028e-015 7.06307e-015
rhumerus -44.954 -19.1362 -51.0093
rradius 19.3955
rwrist 54.2038
rhand -9.67328 -4.21327
rfingers 7.12502
rthumb 16.2983 -33.5483
lclavicle 1.59028e-015 7.06307e-015
lhumerus -55.3184 -6.64066 78.2619
lradius 30.2637
lwrist -8.65068
lhand 6.24589 -12.9777
lfingers 7.12502
lthumb 31.5576 14.316
rfemur 10.0512 -6.1562 21.7598
rtibia 25.8884
rfoot 14.1961 16.4057
rtoes -14.5755
lfemur 7.73303 6.12603 -9.15914
ltibia 30.143
lfoot 23.4178 -13.0398
ltoes 1.85936
